<svg xmlns="http://www.w3.org/2000/svg" viewBox="0 0 24 24" aria-hidden="true">
  <path fill="#58a6ff" d="M12 .5C5.65.5.5 5.65.5 12c0 5.1 3.3 9.45 7.9 10.98.58.1.8-.24.8-.54v-2c-3.2.7-3.85-1.4-3.85-1.4-.53-1.3-1.3-1.65-1.3-1.65-1.08-.73.08-.72.08-.72 1.2.08 1.8 1.23 1.8 1.23 1.07 1.82 2.8 1.3 3.48.99.11-.77.42-1.3.76-1.6-2.66-.3-5.45-1.33-5.45-5.93 0-1.31.47-2.38 1.24-3.22-.12-.3-.54-1.52.12-3.17 0 0 1-.32 3.3 1.23.95-.27 1.98-.4 3-.4s2.05.13 3 .4c2.28-1.55 3.28-1.23 3.28-1.23.66 1.65.24 2.87.12 3.17.77.84 1.24 1.89 1.24 3.22 0 4.61-2.8 5.62-5.47 5.92.43.36.81 1.08.81 2.18v3.23c0 .31.21.69.82.57C20.7 21.45 24 17.1 24 12 24 5.65 18.85.5 12 .5z"/>
</svg>
