<svg xmlns="http://www.w3.org/2000/svg" viewBox="0 0 630 630" aria-hidden="true">
  <rect width="630" height="630" rx="48" fill="#f7df1e"/>
  <path fill="#323330" d="M423.2 492.19c12.69 20.72 29.2 35.95 58.4 35.95 24.53 0 40.15-12.26 40.15-29.2 0-20.3-16.15-27.53-43.16-39.3l-14.8-6.35c-42.72-18.2-71.1-41-71.1-89.2 0-44.4 33.83-78.2 86.6-78.2 37.64 0 64.55 13.11 84.09 47.4l-46.05 29.6c-10.15-18.2-21.1-25.37-38.05-25.37-17.33 0-28.3 11-28.3 25.37 0 17.76 11 24.95 36.4 35.95l14.8 6.34c50.3 21.57 78.7 43.56 78.7 93 0 53.3-41.87 82.5-98.1 82.5-54.98 0-85.9-26.2-102.54-60.54zm-209.13 5.13c9.3 16.5 17.76 30.45 38.1 30.45 19.45 0 31.72-7.61 31.72-37.2v-201.3h59.2v213.87c0 61.3-35.94 89.2-88.4 89.2-47.4 0-74.85-24.53-88.78-54.08z"/>
</svg>
